<svg width="2048" height="2048" viewBox="0 0 2048 2048" fill="none" xmlns="http://www.w3.org/2000/svg"><g clip-path="url(#clip0_2482_253)"><path d="M0 1024C0 0 0 0 1024 0C2048 0 2048 0 2048 1024C2048 2048 2048 2048 1024 2048C0 2048 0 2048 0 1024Z" fill="black"/><path d="M966.211 1929.4C813.418 1926.69 727.694 1916.01 684.12 1894.08C662.761 1883.26 653.789 1865.46 659.201 1844.53C663.615 1827.16 672.444 1814.34 699.784 1785.15C722.283 1761.22 721.856 1761.51 733.105 1765.78C775.825 1781.87 816.978 1793.69 855.14 1800.67C912.811 1811.21 1014.2 1815.76 1082.27 1810.78C1174.54 1804.09 1219.82 1795.12 1284.76 1770.77C1296 1766.49 1306.97 1763.08 1308.96 1763.08C1315.23 1763.08 1350.26 1799.39 1363.79 1819.89C1380.45 1845.38 1380.45 1870.87 1363.64 1885.97C1327.62 1918.43 1190.91 1933.38 966.211 1929.4Z" fill="white"/><path d="M922.071 1756.67C854.575 1750.69 794.625 1736.02 740.371 1712.1C653.366 1673.65 575.332 1608.43 523.357 1530.97C486.903 1476.57 459.562 1413.2 450.022 1361.23C443.471 1325.63 443.471 1326.06 442.19 1142.93C441.478 1046.67 440.196 950.126 439.342 928.624C437.348 883.483 437.776 881.49 448.883 871.807C459.847 862.124 496.444 848.026 526.49 841.903C609.08 824.958 755.608 813.139 927.34 809.579C981.736 808.44 979.031 807.728 982.448 823.107C983.73 828.66 984.726 836.634 984.726 840.906C984.726 852.868 985.581 852.583 937.023 853.722C815.415 856.428 752.902 860.842 642.259 874.512C569.209 883.626 511.253 895.445 507.123 901.995C504.845 905.698 508.405 907.834 524.354 912.96C574.905 929.193 709.613 947.42 819.545 952.831C1034.42 963.654 1213.84 959.239 1374.9 939.161C1436.84 931.472 1481.13 923.212 1510.89 913.672C1540.93 904.131 1540.51 900.714 1507.75 892.455C1461.76 880.778 1387.29 869.813 1317.94 864.545C1276.93 861.412 1180.81 856.428 1146.06 855.716C1136.38 855.431 1127.98 854.577 1127.27 853.865C1125.27 851.871 1124.13 816.129 1125.84 812.996C1127.12 810.718 1129.97 810.433 1153.18 810.433C1193.91 810.433 1289.03 815.844 1354.25 821.825C1466.46 832.22 1555.03 850.732 1585.93 870.383C1599.32 879.069 1600.31 882.914 1598.46 922.216C1597.61 939.446 1596.33 1036.85 1595.61 1138.66C1594.19 1337.73 1594.19 1336.31 1586.36 1374.04C1580.95 1399.96 1571.55 1425.74 1555.6 1457.92C1525.7 1518.58 1500.78 1554.32 1457.49 1598.46C1425.31 1631.36 1404.52 1648.59 1370.63 1670.94C1295.72 1720.07 1208.58 1748.27 1105.91 1756.67C1073.87 1759.37 952.402 1759.23 922.071 1756.67ZM1060.34 1508.75C1087.11 1504.2 1119.58 1491.52 1132.54 1480.42C1147.77 1467.32 1148.34 1447.38 1133.82 1436.84C1128.98 1433.42 1126.7 1432.71 1119.43 1432.71C1111.75 1432.71 1109.61 1433.42 1098.64 1439.69C1081.7 1449.52 1071.45 1453.5 1054.36 1456.92C1041.4 1459.63 1036.27 1459.91 1013.92 1459.34C978.888 1458.49 964.648 1454.36 935.172 1436.84C921.929 1429.01 908.259 1431.15 899.715 1442.11C896.582 1446.38 895.728 1449.09 895.3 1456.78C894.873 1465.18 895.158 1466.75 898.86 1472.3C911.107 1490.38 954.538 1507.76 997.542 1511.6C1009.79 1512.74 1047.1 1511.03 1060.34 1508.75ZM882.576 1259.68C882.576 1197.83 832.439 1147.69 770.592 1147.69C708.745 1147.69 658.608 1197.83 658.608 1259.68C658.608 1321.53 708.745 1371.66 770.592 1371.66C832.439 1371.66 882.576 1321.53 882.576 1259.68ZM1382.38 1259.59C1382.38 1197.67 1332.19 1147.48 1270.28 1147.48C1208.36 1147.48 1158.17 1197.67 1158.17 1259.59C1158.17 1321.5 1208.36 1371.69 1270.28 1371.69C1332.19 1371.69 1382.38 1321.5 1382.38 1259.59Z" fill="white"/><path d="M394.485 1434.85C363.727 1426.45 332.115 1397.54 316.878 1363.94C292.813 1310.68 292.955 1203.03 317.163 1138.23C328.27 1108.9 344.931 1087.83 365.151 1077.72C375.973 1072.3 384.517 1070.88 387.792 1074.16C389.074 1075.44 389.501 1102.49 389.501 1186.93C389.501 1326.91 390.783 1341.29 408.867 1416.34C412.855 1433.28 412.855 1432 410.007 1434.71C407.443 1437.41 404.026 1437.41 394.485 1434.85Z" fill="white"/><path d="M1627.94 1434.85C1624.95 1432 1624.81 1433.71 1628.94 1417.33C1634.2 1396.83 1640.61 1364.22 1643.18 1346.56C1647.59 1314.66 1648.3 1293.3 1648.3 1184.37C1648.3 1100.78 1648.73 1074.01 1650.01 1072.73C1652.72 1070.02 1659.84 1070.74 1668.1 1074.58C1704.26 1091.53 1726.34 1135.39 1735.45 1209.15C1738.3 1232.64 1737.87 1297.15 1734.6 1316.66C1726.19 1367.35 1705.69 1401.53 1671.09 1423.03C1653.86 1433.71 1632.5 1439.55 1627.94 1434.85Z" fill="white"/><path d="M266.329 1344.71C243.118 1336.74 224.749 1315.52 215.493 1286.04C212.787 1277.07 212.218 1272.37 212.36 1256.14C212.36 1233.64 214.354 1224.53 223.325 1206.44C234.147 1184.09 255.364 1167.43 273.164 1167.28C282.847 1167.14 284.556 1169.7 283.559 1182.8C281.423 1208.01 280.996 1290.46 282.705 1316.52C284.556 1342.29 284.556 1343.43 281.993 1345.28C278.575 1347.84 275.015 1347.7 266.329 1344.71Z" fill="white"/><path d="M1755.82 1344C1753.4 1342.15 1753.4 1340.58 1755.1 1307.69C1757.1 1271.8 1756.53 1235.35 1753.54 1193.06C1751.97 1170.41 1751.97 1169.13 1754.53 1166.29C1756.81 1163.86 1758.38 1163.44 1763.93 1163.86C1788.57 1166.29 1815.48 1196.19 1823.6 1229.94C1826.16 1240.62 1826.45 1245.46 1825.88 1260.41C1824.74 1287.75 1817.62 1305.69 1800.39 1323.92C1790.42 1334.31 1781.45 1340.15 1769.77 1343.71C1761.23 1346.28 1759.23 1346.42 1755.82 1344Z" fill="white"/><path d="M265.759 1123.14C264.477 1121.72 263.907 1101.07 263.338 1050.09C262.911 1011.07 262.341 977.751 261.914 976.042C261.487 974.049 259.066 971.628 255.506 969.777C246.108 965.078 237.849 956.391 233.434 946.708C229.732 938.876 229.305 936.313 229.305 924.352C229.305 912.533 229.732 909.827 233.292 902.85C244.826 879.069 269.034 867.108 292.102 873.658C307.766 878.215 319.158 888.183 326.563 904.131C329.98 911.251 330.407 913.957 330.407 925.776C330.265 936.741 329.695 940.585 327.132 945.854C322.718 954.683 317.591 960.521 308.336 966.786C303.921 969.919 300.219 973.622 299.649 975.615C299.08 977.609 298.653 1009.79 298.51 1047.1C298.368 1106.19 298.083 1115.31 296.232 1117.16C293.669 1119.72 276.438 1125.13 271.027 1125.13C269.034 1125.13 266.613 1124.28 265.759 1123.14Z" fill="white"/><path d="M1753.68 1121.57C1747.55 1119.58 1741.86 1116.87 1740.58 1115.02C1738.15 1112.18 1738.01 1106.62 1738.01 1043.68C1738.01 1001.96 1737.44 974.476 1736.59 972.768C1735.88 971.344 1732.32 968.496 1728.9 966.502C1714.37 957.958 1706.4 942.722 1706.26 923.64C1706.12 913.672 1706.68 910.967 1710.53 902.993C1716.65 890.034 1723.63 882.63 1734.88 877.076C1743.28 872.804 1745.7 872.377 1756.52 872.377C1766.92 872.377 1769.91 872.947 1777.46 876.506C1788.28 881.49 1797.96 891.316 1803.23 902.708C1806.51 909.685 1807.08 912.676 1807.08 924.352C1807.08 936.171 1806.65 938.877 1803.23 945.712C1798.67 954.968 1792.55 961.661 1783.15 967.356C1779.31 969.777 1776.18 972.91 1775.89 974.619C1775.46 976.328 1774.75 1010.08 1774.32 1049.66C1773.75 1097.37 1772.9 1122.14 1771.9 1123.28C1769.91 1125.85 1766.06 1125.42 1753.68 1121.57Z" fill="white"/><path d="M1038.98 896.728C1037.56 895.019 1037.41 891.317 1038.84 876.934C1039.98 863.834 1040.12 855.005 1038.84 842.332C1036.28 813.282 1031.72 798.473 1012.78 756.323C991.277 708.193 985.297 685.979 977.75 626.741C970.63 571.491 970.06 509.12 976.041 480.213C980.598 458.427 987.86 437.779 999.109 414.71C1010.93 390.218 1013.21 386.516 1040.69 344.223C1066.32 305.064 1078.28 282.707 1085.69 259.781C1093.23 236.998 1095.8 221.334 1095.8 198.408C1095.8 159.391 1085.54 128.775 1059.63 89.9005C1053.65 81.0718 1048.95 73.0976 1049.23 72.2432C1050.37 69.2528 1059.63 70.9616 1074.87 77.0847C1116.02 93.4605 1162.16 125.5 1186.36 154.407C1221.54 196.272 1249.45 256.791 1256.71 307.342C1259.13 323.86 1257.85 376.975 1254.57 394.632C1249.02 425.39 1235.77 461.987 1220.97 488.045C1202.17 520.939 1183.94 544.293 1149.91 579.038C1123.71 605.809 1105.05 626.456 1094.66 639.842C1073.16 667.752 1062.76 697.37 1062.9 730.692C1062.9 744.789 1063.76 752.194 1068.74 785.515C1073.87 819.263 1072.44 859.989 1065.18 885.478C1062.62 894.022 1058.77 896.87 1047.67 898.294C1042.54 898.864 1040.4 898.436 1038.98 896.728ZM1050.23 595.983C1055.5 580.889 1067.75 549.134 1077.29 525.496C1111.32 440.912 1130.12 384.664 1124.42 384.664C1119.44 384.664 1065.61 485.482 1052.22 519.943C1039.55 552.409 1032 595.841 1035.14 617.343C1036.99 629.447 1039.69 625.459 1050.23 595.983Z" fill="white"/><path d="M916.806 750.343C915.097 747.78 910.256 739.663 905.842 732.401C882.061 692.957 861.413 667.752 835.924 647.247C825.956 639.415 800.894 622.897 763.159 599.686C678.432 547.426 635.712 497.444 610.366 420.977C597.835 383.099 592.566 350.347 590.857 298.941C590.003 273.595 590.145 270.604 592.423 267.044C594.844 263.342 595.129 263.2 605.809 264.054C654.509 267.899 717.307 287.265 761.735 312.184C828.804 349.92 879.498 408.73 897.155 469.392C904.987 496.59 908.12 530.481 905.272 558.391C902.139 588.437 899.291 589.576 885.621 565.938C858.138 517.95 822.966 474.376 783.237 439.061C755.184 414.141 728.841 394.775 723.002 394.633C720.012 394.633 723.43 399.617 736.815 414.426C778.823 460.848 819.833 515.956 856.999 575.906C878.074 609.939 903.848 663.623 914.955 696.659C920.081 711.896 925.208 739.663 924.638 748.207C924.068 755.754 921.078 756.609 916.806 750.343Z" fill="white"/></g><defs><clipPath id="clip0_2482_253"><rect width="2048" height="2048" fill="white"/></clipPath></defs></svg>
